<svg xmlns="http://www.w3.org/2000/svg" xmlns:xlink="http://www.w3.org/1999/xlink" width="500" zoomAndPan="magnify" viewBox="0 0 375 374.999991" height="500" preserveAspectRatio="xMidYMid meet" version="1.0"><defs><g/></defs><rect x="-37.5" width="450" fill="#ffffff" y="-37.499999" height="449.999989" fill-opacity="1"/><rect x="-37.5" width="450" fill="#ffffff" y="-37.499999" height="449.999989" fill-opacity="1"/><path fill="#001843" d="M 147.277344 72.003906 C 151.792969 70.726562 156.453125 70.03125 161.089844 69.457031 C 165.269531 69.179688 169.472656 69.230469 173.65625 69.445312 C 175.054688 69.886719 176.550781 69.675781 177.992188 69.90625 C 183.859375 70.808594 189.691406 72.128906 195.277344 74.195312 C 195.867188 74.433594 196.472656 74.664062 197.066406 74.902344 C 198.195312 75.355469 199.300781 75.855469 200.40625 76.367188 C 201.046875 76.65625 201.675781 76.976562 202.285156 77.335938 C 210.730469 81.421875 218.195312 87.402344 224.367188 94.441406 C 218.6875 101.59375 212.808594 108.601562 207.183594 115.800781 C 206.84375 115.820312 206.503906 115.84375 206.167969 115.863281 C 201.722656 109.769531 195.652344 104.996094 188.996094 101.519531 C 188.128906 101.1875 187.316406 100.726562 186.484375 100.335938 C 185.894531 100.089844 185.304688 99.84375 184.71875 99.605469 C 176.738281 96.339844 167.777344 95.210938 159.304688 96.964844 C 156.261719 97.394531 153.378906 98.515625 150.527344 99.601562 C 149.75 99.988281 148.929688 100.296875 148.121094 100.597656 C 147.375 101.03125 146.570312 101.339844 145.824219 101.761719 C 135.324219 107.28125 126.808594 116.585938 122.355469 127.589844 C 120.277344 132.605469 119.203125 138.007812 118.757812 143.402344 C 118.816406 145.910156 118.464844 148.480469 119.03125 150.945312 C 119.488281 156.160156 121.003906 161.242188 123.089844 166.03125 C 129.351562 179.507812 141.566406 190.0625 155.808594 194.296875 C 163.925781 196.667969 172.582031 197.0625 180.859375 195.277344 C 185.140625 194.261719 189.367188 192.941406 193.300781 190.953125 C 198.820312 188.308594 203.863281 184.695312 207.972656 180.160156 C 209.121094 178.996094 210.023438 177.589844 211.355469 176.613281 C 217.101562 183.472656 223.003906 190.195312 228.652344 197.128906 C 220.726562 205.152344 211.277344 211.714844 200.90625 216.175781 C 188.003906 221.761719 173.582031 223.90625 159.632812 222.113281 C 157.984375 221.675781 156.28125 221.8125 154.597656 221.769531 C 155.167969 221.671875 155.746094 221.59375 156.324219 221.542969 C 151.277344 220.785156 146.289062 219.484375 141.546875 217.589844 C 140.714844 217.332031 139.910156 217.007812 139.144531 216.613281 C 137.445312 216.027344 135.878906 215.132812 134.195312 214.5 C 133.449219 214.0625 132.660156 213.710938 131.910156 213.289062 C 116.613281 205.140625 103.925781 191.867188 97.011719 175.933594 C 96.597656 175.167969 96.285156 174.355469 96.019531 173.535156 C 95.351562 172.011719 95.011719 170.367188 94.316406 168.855469 C 94.261719 168.597656 94.15625 168.070312 94.101562 167.804688 C 93.871094 167.1875 93.660156 166.574219 93.429688 165.964844 C 90.300781 155.546875 90.097656 144.445312 91.492188 133.730469 C 92.480469 127.988281 94.125 122.382812 96.273438 116.96875 C 96.988281 115.40625 97.671875 113.824219 98.414062 112.269531 C 105.574219 97.902344 117.238281 85.789062 131.417969 78.242188 C 132.339844 77.695312 133.328125 77.269531 134.304688 76.828125 C 134.917969 76.449219 135.585938 76.152344 136.257812 75.882812 C 137.152344 75.457031 138.082031 75.113281 138.980469 74.699219 C 141.695312 73.65625 144.457031 72.722656 147.277344 72.003906 Z M 147.277344 72.003906 " fill-opacity="1" fill-rule="nonzero"/><path fill="#001843" d="M 253.414062 72.605469 C 265.03125 72.59375 276.652344 72.578125 288.269531 72.632812 C 277.582031 85.757812 267.226562 99.144531 256.621094 112.332031 C 250.390625 120.28125 243.933594 128.050781 237.851562 136.113281 C 236.441406 137.984375 234.496094 139.90625 234.65625 142.433594 C 234.71875 145.132812 236.941406 146.980469 238.375 149.039062 C 256.3125 172.691406 274.421875 196.222656 292.484375 219.777344 C 281.160156 219.988281 269.824219 219.832031 258.496094 219.886719 C 257.742188 219.789062 256.820312 220.089844 256.207031 219.558594 C 244.949219 204.59375 233.882812 189.496094 222.722656 174.457031 C 220.492188 171.320312 217.96875 168.375 215.996094 165.066406 C 215.476562 165.152344 214.914062 165.203125 214.570312 165.648438 C 210.996094 169.273438 208.121094 173.515625 204.488281 177.089844 C 201.207031 180.414062 197.042969 182.753906 192.753906 184.527344 C 190.011719 185.617188 187.117188 186.523438 184.132812 186.382812 C 180.425781 186.21875 176.714844 186.296875 173.011719 186.152344 C 170.640625 185.730469 169.828125 183.046875 169.40625 180.992188 C 169.488281 181.066406 169.648438 181.203125 169.726562 181.277344 C 170.199219 179.136719 171.589844 177.421875 172.84375 175.699219 C 177.535156 169.421875 182.0625 163.019531 186.851562 156.820312 C 198.222656 142.371094 209.585938 127.921875 220.957031 113.472656 C 231.714844 99.800781 242.28125 85.976562 253.414062 72.605469 Z M 253.414062 72.605469 " fill-opacity="1" fill-rule="nonzero"/><path fill="#f66807" d="M 136.609375 130.339844 C 146.699219 130.238281 156.800781 130.234375 166.890625 130.324219 C 173.371094 139.3125 180.046875 148.160156 186.441406 157.21875 L 186.851562 156.820312 C 182.0625 163.019531 177.535156 169.421875 172.84375 175.699219 C 171.589844 177.421875 170.199219 179.136719 169.726562 181.277344 C 169.648438 181.203125 169.488281 181.066406 169.40625 180.992188 C 169.25 180.839844 168.9375 180.527344 168.777344 180.371094 C 158.253906 164.195312 147.605469 148.085938 137.238281 131.804688 C 136.972656 131.339844 136.761719 130.851562 136.609375 130.339844 Z M 136.609375 130.339844 " fill-opacity="1" fill-rule="nonzero"/><g fill="#f66809" fill-opacity="1"><g transform="translate(40.283205, 268.757399)"><g><path d="M 21.765625 0.625 C 18.023438 0.625 14.648438 -0.179688 11.640625 -1.796875 C 8.628906 -3.421875 6.269531 -5.648438 4.5625 -8.484375 C 2.863281 -11.328125 2.015625 -14.519531 2.015625 -18.0625 C 2.015625 -21.601562 2.863281 -24.789062 4.5625 -27.625 C 6.269531 -30.46875 8.628906 -32.695312 11.640625 -34.3125 C 14.648438 -35.925781 18.023438 -36.734375 21.765625 -36.734375 C 25.515625 -36.734375 28.882812 -35.925781 31.875 -34.3125 C 34.875 -32.695312 37.234375 -30.46875 38.953125 -27.625 C 40.671875 -24.789062 41.53125 -21.601562 41.53125 -18.0625 C 41.53125 -14.519531 40.671875 -11.328125 38.953125 -8.484375 C 37.234375 -5.648438 34.875 -3.421875 31.875 -1.796875 C 28.882812 -0.179688 25.515625 0.625 21.765625 0.625 Z M 21.765625 -6.5 C 23.898438 -6.5 25.828125 -6.988281 27.546875 -7.96875 C 29.265625 -8.945312 30.613281 -10.3125 31.59375 -12.0625 C 32.582031 -13.820312 33.078125 -15.820312 33.078125 -18.0625 C 33.078125 -20.289062 32.582031 -22.28125 31.59375 -24.03125 C 30.613281 -25.789062 29.265625 -27.160156 27.546875 -28.140625 C 25.828125 -29.117188 23.898438 -29.609375 21.765625 -29.609375 C 19.640625 -29.609375 17.71875 -29.117188 16 -28.140625 C 14.28125 -27.160156 12.925781 -25.789062 11.9375 -24.03125 C 10.957031 -22.28125 10.46875 -20.289062 10.46875 -18.0625 C 10.46875 -15.820312 10.957031 -13.820312 11.9375 -12.0625 C 12.925781 -10.3125 14.28125 -8.945312 16 -7.96875 C 17.71875 -6.988281 19.640625 -6.5 21.765625 -6.5 Z M 21.765625 -6.5 "/></g></g></g><g fill="#f66809" fill-opacity="1"><g transform="translate(83.831622, 268.757399)"><g><path d="M 17.4375 -14.1875 L 12.59375 -9.125 L 12.59375 0 L 4.28125 0 L 4.28125 -36.109375 L 12.59375 -36.109375 L 12.59375 -19.25 L 28.578125 -36.109375 L 37.875 -36.109375 L 22.90625 -20.015625 L 38.75 0 L 29 0 Z M 17.4375 -14.1875 "/></g></g></g><g fill="#011741" fill-opacity="1"><g transform="translate(122.021481, 268.757399)"><g><path d="M 32.25 -6.703125 L 32.25 0 L 4.28125 0 L 4.28125 -36.109375 L 31.578125 -36.109375 L 31.578125 -29.40625 L 12.59375 -29.40625 L 12.59375 -21.5625 L 29.359375 -21.5625 L 29.359375 -15.0625 L 12.59375 -15.0625 L 12.59375 -6.703125 Z M 32.25 -6.703125 "/></g></g></g><g fill="#011741" fill-opacity="1"><g transform="translate(156.127504, 268.757399)"><g><path d="M 39 -36.109375 L 23.375 0 L 15.109375 0 L -0.46875 -36.109375 L 8.5625 -36.109375 L 19.546875 -10.3125 L 30.703125 -36.109375 Z M 39 -36.109375 "/></g></g></g><g fill="#011741" fill-opacity="1"><g transform="translate(193.845351, 268.757399)"><g><path d="M 32.25 -6.703125 L 32.25 0 L 4.28125 0 L 4.28125 -36.109375 L 31.578125 -36.109375 L 31.578125 -29.40625 L 12.59375 -29.40625 L 12.59375 -21.5625 L 29.359375 -21.5625 L 29.359375 -15.0625 L 12.59375 -15.0625 L 12.59375 -6.703125 Z M 32.25 -6.703125 "/></g></g></g><g fill="#011741" fill-opacity="1"><g transform="translate(228.467377, 268.757399)"><g><path d="M 37.40625 -36.109375 L 37.40625 0 L 30.546875 0 L 12.53125 -21.921875 L 12.53125 0 L 4.28125 0 L 4.28125 -36.109375 L 11.203125 -36.109375 L 29.15625 -14.1875 L 29.15625 -36.109375 Z M 37.40625 -36.109375 "/></g></g></g><g fill="#011741" fill-opacity="1"><g transform="translate(270.158281, 268.757399)"><g><path d="M 11.765625 -29.3125 L 0.203125 -29.3125 L 0.203125 -36.109375 L 31.671875 -36.109375 L 31.671875 -29.3125 L 20.125 -29.3125 L 20.125 0 L 11.765625 0 Z M 11.765625 -29.3125 "/></g></g></g><g fill="#011741" fill-opacity="1"><g transform="translate(301.787631, 268.757399)"><g><path d="M 16.15625 0.625 C 13.289062 0.625 10.523438 0.238281 7.859375 -0.53125 C 5.203125 -1.3125 3.0625 -2.320312 1.4375 -3.5625 L 4.28125 -9.859375 C 5.832031 -8.722656 7.671875 -7.8125 9.796875 -7.125 C 11.929688 -6.4375 14.066406 -6.09375 16.203125 -6.09375 C 18.578125 -6.09375 20.332031 -6.441406 21.46875 -7.140625 C 22.601562 -7.847656 23.171875 -8.785156 23.171875 -9.953125 C 23.171875 -10.816406 22.832031 -11.53125 22.15625 -12.09375 C 21.488281 -12.664062 20.628906 -13.125 19.578125 -13.46875 C 18.523438 -13.8125 17.109375 -14.1875 15.328125 -14.59375 C 12.578125 -15.25 10.320312 -15.90625 8.5625 -16.5625 C 6.8125 -17.21875 5.304688 -18.265625 4.046875 -19.703125 C 2.796875 -21.148438 2.171875 -23.078125 2.171875 -25.484375 C 2.171875 -27.585938 2.738281 -29.488281 3.875 -31.1875 C 5.007812 -32.894531 6.71875 -34.242188 9 -35.234375 C 11.289062 -36.234375 14.085938 -36.734375 17.390625 -36.734375 C 19.691406 -36.734375 21.941406 -36.457031 24.140625 -35.90625 C 26.347656 -35.351562 28.273438 -34.5625 29.921875 -33.53125 L 27.34375 -27.1875 C 24.007812 -29.082031 20.671875 -30.03125 17.328125 -30.03125 C 14.992188 -30.03125 13.265625 -29.648438 12.140625 -28.890625 C 11.023438 -28.128906 10.46875 -27.132812 10.46875 -25.90625 C 10.46875 -24.664062 11.113281 -23.742188 12.40625 -23.140625 C 13.695312 -22.535156 15.664062 -21.941406 18.3125 -21.359375 C 21.0625 -20.703125 23.3125 -20.046875 25.0625 -19.390625 C 26.820312 -18.742188 28.328125 -17.710938 29.578125 -16.296875 C 30.835938 -14.890625 31.46875 -12.984375 31.46875 -10.578125 C 31.46875 -8.515625 30.890625 -6.628906 29.734375 -4.921875 C 28.585938 -3.222656 26.863281 -1.875 24.5625 -0.875 C 22.257812 0.125 19.457031 0.625 16.15625 0.625 Z M 16.15625 0.625 "/></g></g></g></svg>